# xmcd
#
# Track frame offsets:
#	150
#	25465
#	45562
#	65433
#	93913
#	111808
#	135979
#	154945
#	183238
#	205980
#	219624
#
# Disc length: 3248 seconds
# Revision: 0
# Processed by: cddbd v1.5.2PL0 Copyright (c) Steve Scherf et al.
# Submitted via: dBpowerAMP V12.0
#
DISCID=960cae0b
DTITLE=TAXI SAUDADE - Ja-Bossa
DYEAR=2014
DGENRE=Bossa Nova
TTITLE0=アベマリーア！
TTITLE1=浜辺にて
TTITLE2=あのこはあのこは
TTITLE3=コラソン
TTITLE4=ディサフィナード
TTITLE5=サマータイム
TTITLE6=イパネマの娘
TTITLE7=ペルーからの便り
TTITLE8=喜びも悲しみも
TTITLE9=夏の思い出
TTITLE10=愛のわすれもの
EXTD=
EXTT0=
EXTT1=
EXTT2=
EXTT3=
EXTT4=
EXTT5=
EXTT6=
EXTT7=
EXTT8=
EXTT9=
EXTT10=
PLAYORDER=
